<svg width="122" height="102" viewBox="0 0 122 102" fill="none" xmlns="http://www.w3.org/2000/svg">
<path d="M31.1495 0L92.3974 0.00905871C100.403 0.106495 104.58 1.00306 108.912 3.32751C113.111 5.58076 116.437 8.91781 118.683 13.131C121.145 17.749 122 22.191 122 31.2516V70.7484C122 79.809 121.145 84.251 118.683 88.869C116.437 93.0822 113.111 96.4192 108.912 98.6725C104.309 101.142 99.8815 102 90.8505 102H31.1495C22.1185 102 17.691 101.142 13.0881 98.6725C8.88866 96.4192 5.56252 93.0822 3.31663 88.869C0.854984 84.251 0 79.809 0 70.7484L0.0090279 29.6997C0.106145 21.6678 0.999787 17.4773 3.31663 13.131C5.56252 8.91781 8.88866 5.58076 13.0881 3.32751C17.691 0.857786 22.1185 0 31.1495 0ZM110.243 19.0129L75.3778 53.9875C67.7019 61.6887 55.4156 61.9454 47.4323 54.7576L46.6222 53.9875L11.7569 19.0129C10.5907 21.6382 10.1667 24.6411 10.1667 31.2516V70.7484C10.1667 78.2692 10.7155 81.1204 12.2817 84.0587C13.5801 86.4943 15.455 88.3754 17.8827 89.678C20.4668 91.0645 22.9834 91.6563 28.6893 91.7764L31.1495 91.8H90.8505C98.3467 91.8 101.189 91.2494 104.117 89.678C106.545 88.3754 108.42 86.4943 109.718 84.0587C111.1 81.4661 111.69 78.9413 111.81 73.2166L111.833 70.7484V31.2516C111.833 24.6411 111.409 21.6382 110.243 19.0129ZM90.8505 10.2H31.1495C24.5606 10.2 21.5675 10.6254 18.9508 11.7954L53.8111 46.775C57.5725 50.5487 63.5478 50.7473 67.5422 47.3709L68.1889 46.775L103.049 11.7954C100.432 10.6254 97.4394 10.2 90.8505 10.2Z" fill="#9DA4BF"/>
</svg>
