<svg width="754" height="130" viewBox="0 0 754 130" fill="none" xmlns="http://www.w3.org/2000/svg">
<rect x="26.5674" width="17.4586" height="98.6793" fill="#D34E57"/>
<rect y="30.3633" width="17.4586" height="98.6793" fill="#37ECF5"/>
<path d="M121.158 92.6H102.235L94.2696 60.9592L87.6246 92.6H70.418L84.016 28.2622H101.223L94.8417 58.3628L115.041 28.2622H134.228L111.344 60.1671L121.158 92.6Z" fill="#D34E57"/>
<path d="M141.742 28.2622H157.409L151.644 55.1943C150.881 58.9789 149.561 64.201 147.683 70.8607H148.035L177.256 28.2622H198.775L185.177 92.6H169.51L175.099 65.9319C176.038 61.1205 177.388 55.5024 179.148 49.0774H178.796L149.663 92.6H128.144L141.742 28.2622Z" fill="#D34E57"/>
<path d="M250.868 28.2622L247.92 42.3003H227.105L225.08 52.1138H226.357C233.28 52.1138 238.664 53.7568 242.507 57.0426C246.35 60.2991 248.272 64.7584 248.272 70.4206C248.272 77.3443 245.984 82.7718 241.407 86.7031C236.86 90.6344 230.405 92.6 222.044 92.6H199.336L212.847 28.2622H250.868ZM219.536 79.178H222.924C225.506 79.178 227.486 78.4885 228.865 77.1096C230.273 75.7014 230.977 73.7798 230.977 71.3448C230.977 69.6138 230.435 68.2203 229.349 67.1641C228.293 66.108 226.914 65.5799 225.212 65.5799H222.22L219.536 79.178Z" fill="#D34E57"/>
<path d="M292.004 92.6H253.806L267.404 28.2622H305.602L302.742 42.2123H281.75L279.682 52.3339H299.221L296.053 66.284H276.514L274.005 78.4298H294.996L292.004 92.6Z" fill="#D34E57"/>
<path d="M357.651 47.5371C357.651 54.9303 355.128 60.7392 350.082 64.9638C345.066 69.1591 338.186 71.2568 329.443 71.2568H325.659L321.258 92.6H304.051L317.649 28.2622H334.064C341.662 28.2622 347.486 29.9345 351.535 33.279C355.612 36.5941 357.651 41.3469 357.651 47.5371ZM328.739 57.1746H331.511C334.181 57.1746 336.338 56.3238 337.98 54.6222C339.623 52.8913 340.445 50.7056 340.445 48.0652C340.445 46.3343 339.917 44.9407 338.861 43.8846C337.804 42.8284 336.352 42.3003 334.504 42.3003H331.908L328.739 57.1746Z" fill="#D34E57"/>
<path d="M401.195 112.711L405.507 92.6004H369.378L365.065 112.711H348.298L355.428 78.3423H363.261C367.691 71.5066 371.886 63.6294 375.847 54.7107C379.837 45.792 383.064 36.976 385.528 28.2626H425.09L414.441 78.3423H425.266L417.961 112.711H401.195ZM404.979 42.4768H397.498C393.537 55.2094 388.433 67.1646 382.184 78.3423H397.234L404.979 42.4768Z" fill="#37ECF5"/>
<path d="M468.338 27.2505C475.966 27.2505 481.892 29.4362 486.117 33.8075C490.371 38.1495 492.498 44.2224 492.498 52.0263C492.498 59.8301 491.031 66.9739 488.097 73.4575C485.193 79.9118 481.173 84.8699 476.039 88.3318C470.905 91.7643 464.95 93.4806 458.173 93.4806C450.281 93.4806 444.178 91.2949 439.866 86.9236C435.583 82.5522 433.441 76.4793 433.441 68.7048C433.441 60.9303 434.952 53.7865 437.974 47.2735C440.995 40.7605 445.103 35.8025 450.295 32.3993C455.518 28.9667 461.532 27.2505 468.338 27.2505ZM475.115 52.2023C475.115 48.8578 474.411 46.2467 473.003 44.3691C471.595 42.4621 469.556 41.5087 466.886 41.5087C463.982 41.5087 461.312 42.7408 458.877 45.2052C456.442 47.6696 454.491 51.0581 453.024 55.3708C451.586 59.6834 450.868 64.0988 450.868 68.6168C450.868 75.7165 453.801 79.2664 459.669 79.2664C462.456 79.2664 465.038 78.0489 467.414 75.6138C469.82 73.1788 471.697 69.893 473.047 65.7563C474.426 61.6197 475.115 57.1017 475.115 52.2023Z" fill="#37ECF5"/>
<path d="M546.043 92.6004H528.837L534.338 66.3724H519.111L513.522 92.6004H496.316L509.914 28.2626H527.121L522.192 52.1143H537.506L542.435 28.2626H559.686L546.043 92.6004Z" fill="#37ECF5"/>
<path d="M596.509 80.5426H576.794L571.293 92.6004H553.426L586.167 28.2626H608.302L613.715 92.6004H596.949L596.509 80.5426ZM583.087 66.8125H595.98L595.232 48.1537L595.144 44.3691C595.144 42.1688 595.203 40.2471 595.32 38.6042C594.616 41.1273 593.721 43.5623 592.636 45.9093L583.087 66.8125Z" fill="#37ECF5"/>
<path d="M646.798 92.6004H629.591L640.021 42.4768H626.07L629.107 28.2626H674.346L671.221 42.4768H657.227L646.798 92.6004Z" fill="#37ECF5"/>
<path d="M718.87 70.4211C718.87 77.3448 716.582 82.7723 712.005 86.7035C707.458 90.6348 701.003 92.6004 692.642 92.6004H669.935L683.445 28.2626H700.651L695.678 52.1143H696.955C703.878 52.1143 709.262 53.7572 713.105 57.043C716.948 60.2995 718.87 64.7589 718.87 70.4211ZM690.134 79.1784H693.522C696.104 79.1784 698.084 78.4889 699.463 77.1101C700.871 75.7019 701.575 73.7802 701.575 71.3452C701.575 69.6143 701.033 68.2207 699.947 67.1646C698.891 66.1084 697.512 65.5803 695.811 65.5803H692.818L690.134 79.1784ZM723.095 92.6004L736.693 28.2626H753.943L740.301 92.6004H723.095Z" fill="#37ECF5"/>
</svg>
