<svg width="3840" height="788" viewBox="0 0 3840 788" fill="none" xmlns="http://www.w3.org/2000/svg">
<path d="M0 780L48.7083 754.553C88.4701 734.553 167.994 696.553 247.517 658.553C327.041 619.553 406.565 581.553 486.089 446.553C565.612 312.553 645.136 82.5533 724.66 24.5533C804.183 -33.4467 883.707 82.5533 963.231 178.553C1042.75 274.553 1122.28 350.553 1201.8 293.553C1281.33 235.553 1360.85 43.5533 1440.37 101.553C1519.9 158.553 1599.42 466.553 1678.94 523.553C1758.47 581.553 1837.99 389.553 1917.51 331.553C1997.04 274.553 2076.56 350.553 2156.09 350.553C2235.61 350.553 2315.13 274.553 2394.66 197.553C2474.18 120.553 2553.7 43.5533 2633.23 62.5533C2712.75 82.5533 2792.28 197.553 2871.8 274.553C2951.32 350.553 3030.85 389.553 3110.37 446.553C3189.89 504.553 3269.42 581.553 3348.94 581.553C3428.46 581.553 3507.99 504.553 3587.51 427.553C3667.04 350.553 3746.56 274.553 3786.32 235.553L3840 180.5" stroke="#9DA4BF" stroke-opacity="0.21" stroke-width="17"/>
</svg>
