<svg width="102" height="102" viewBox="0 0 102 102" fill="none" xmlns="http://www.w3.org/2000/svg">
<path d="M60.8099 66.1068L57.4075 69.5102C56.4986 70.4205 55.1439 70.7198 53.9363 70.2773C50.5523 69.0326 46.3189 65.8725 41.236 60.788C36.1578 55.7081 32.9942 51.4734 31.7545 48.0837C31.3109 46.8765 31.6083 45.5216 32.5167 44.6113L35.9236 41.2079C42.2003 34.9292 42.7742 25.0404 37.2414 18.4769L33.2467 13.7277C28.6873 8.30334 20.473 7.75677 14.8943 12.5014C12.8195 14.2899 11.2597 16.6002 10.3762 19.1934C9.99431 20.3223 9.74771 21.4925 9.64153 22.6796C7.59829 37.8504 14.9126 53.7745 31.58 70.4472C48.2474 87.12 64.1617 94.4321 79.3322 92.3882C83.2734 92.0119 86.9179 90.1298 89.5071 87.1337C94.2548 81.5578 93.7038 73.3362 88.2857 68.7753L83.5381 64.7748C76.9675 59.2494 67.0865 59.8281 60.8099 66.1068ZM47.7912 54.2318C50.2191 56.6605 52.3364 58.5025 54.0481 59.7572C63.8895 49.9126 79.203 49.0153 89.5106 57.6834L94.2548 61.6811C103.66 69.5987 104.601 83.7071 96.5202 93.1974C92.3706 97.9991 86.5297 101.015 80.5697 101.577C62.1126 104.064 43.551 95.5357 25.0248 77.0035C6.49814 58.4708 -2.03148 39.8994 0.408348 21.8533C0.579871 19.9357 0.978249 18.0453 1.60167 16.2024C3.01767 12.0464 5.51735 8.34395 8.88941 5.4374C18.3322 -2.59351 32.4299 -1.65271 40.3402 7.75834L44.3284 12.4999C53.0058 22.7937 52.1168 38.123 42.4744 47.7686C43.5216 49.6851 45.3624 51.8021 47.7912 54.2318Z" fill="#9DA4BF"/>
</svg>
